<svg width="92" height="88" viewBox="0 0 92 88" fill="none" xmlns="http://www.w3.org/2000/svg">
<path d="M68.8578 5.61963C69.1323 5.79609 69.397 5.97255 69.6519 6.15881C69.9362 6.34508 70.2107 6.54114 70.495 6.75682C70.7695 6.95288 71.044 7.15875 71.3087 7.37442L71.9655 7.89399C72.5635 8.37436 73.1321 8.87433 73.6908 9.41351L74.4163 10.1291C74.9064 10.6291 75.3966 11.1095 75.828 11.6683C76.5268 12.4718 77.1814 13.3129 77.7886 14.1877C79.6814 16.9057 81.1308 19.9069 82.0825 23.0793C82.3308 23.8636 82.5367 24.6478 82.7001 25.4321C83.4269 28.7687 83.6549 32.1946 83.3765 35.5981C83.3765 36.2353 83.2687 36.8627 83.1903 37.5C83.0628 38.4803 82.9059 39.3822 82.7197 40.3331C82.5334 41.284 82.357 41.9899 82.1315 42.8134C81.6551 44.5685 81.0657 46.2909 80.3669 47.9699L80.2394 48.2836C80.1414 48.5287 80.0336 48.7738 79.9257 48.9992C79.7591 49.3816 79.5924 49.7541 79.416 50.1364L79.3572 50.2344C78.8376 51.3422 78.2592 52.4206 77.6318 53.4891L77.171 54.2636L76.7299 54.9792C76.4946 55.3616 76.2397 55.7439 75.975 56.1164C75.4652 56.8713 74.9163 57.6261 74.3673 58.3712C74.0144 58.8123 73.681 59.2437 73.3379 59.6652L72.5831 60.5671C72.2792 60.92 71.9655 61.273 71.6027 61.6161C70.9655 62.3219 70.2989 63.0081 69.6421 63.6846L69.5833 63.7336C69.0833 64.2238 68.6029 64.7139 68.0638 65.1747C67.5246 65.6354 67.2893 65.8805 66.8874 66.2138C65.5756 67.3315 64.208 68.3819 62.7896 69.3607C62.2504 69.743 61.7014 70.0959 61.1524 70.4489C60.9073 70.6155 60.6524 70.7626 60.4074 70.9194L60.0643 71.1253L59.3976 71.537L59.1329 71.6841L58.731 71.9095L57.7507 72.4487L57.2703 72.6938L56.6233 73.0271L56.0351 73.331L55.4959 73.5859L54.7999 73.9094L54.3489 74.1251L54.1725 74.2035L52.7118 74.8211C52.2706 75.0074 51.8197 75.174 51.3589 75.3407C50.8982 75.5073 50.1727 75.772 49.5747 75.9681L49.2316 76.0858C48.8101 76.223 48.3885 76.3406 47.967 76.4583C47.6925 76.5465 47.418 76.6347 47.1435 76.7034C46.869 76.772 46.6828 76.821 46.4573 76.8798C42.7056 77.8602 38.8454 78.3642 34.9678 78.3797H33.909H32.9287L31.7523 78.3013L30.6936 78.2033L29.576 78.0758L28.4682 77.9092L27.4095 77.7327L26.3115 77.5072C25.9782 77.4386 25.6351 77.3798 25.3312 77.2916C25.0273 77.2033 24.4979 77.0661 24.0763 76.9484L23.5764 76.8112L23.2823 76.7328L22.302 76.4093C22.1059 76.3406 21.9 76.2818 21.7039 76.2034L21.2628 76.0563L20.1844 75.625H20.0668C19.5178 75.3995 18.9786 75.1642 18.4492 74.9093H18.3806C17.3175 74.4063 16.2803 73.85 15.273 73.2428C14.9103 73.0271 14.5573 72.7918 14.1946 72.5664L13.8515 72.3115C13.4267 72.0239 13.015 71.7298 12.6163 71.4292L12.1751 71.1057C11.3786 70.4942 10.6161 69.8397 9.89097 69.145L9.18513 68.4686L9.0675 68.3607L8.86162 68.1255C8.42047 67.6647 7.98913 67.1942 7.57739 66.7138C7.42054 66.5373 7.27348 66.3609 7.12643 66.1746C6.63627 65.5766 6.1461 64.959 5.70496 64.312C19.0374 88.5065 47.0945 93.6533 70.2205 78.5464C95.7385 61.8317 100.983 24.4714 68.8578 5.61963Z" fill="url(#paint0_linear)"/>
<path d="M62.8481 69.4488C82.7488 55.636 89.4542 30.912 77.8079 14.217C66.1616 -2.47802 40.5553 -4.80139 20.6841 9.01146C0.812764 22.8243 -5.87308 47.558 5.72422 64.2433C17.3215 80.9285 42.9474 83.2715 62.8481 69.4488Z" fill="#FFCD39"/>
<path d="M77.8277 14.227C71.2693 4.84527 60.3386 0.00244141 48.4864 0.00244141C38.5173 0.128979 28.8218 3.28103 20.6842 9.04109C0.763931 22.8245 -5.92192 47.5485 5.72441 64.2435C12.2632 73.6154 23.1939 78.4681 35.0461 78.4681C45.0166 78.3411 54.7129 75.1854 62.8482 69.4196C82.7489 55.6166 89.4544 30.9024 77.8277 14.227ZM76.318 41.343C73.5663 50.8087 67.5776 59.0075 59.3975 64.5082C52.2621 69.5395 43.7759 72.3033 35.0461 72.439C24.7232 72.439 15.8414 68.1942 10.6849 60.8025C0.959999 46.8622 6.99883 25.8538 24.135 13.9623C31.266 8.9222 39.755 6.15746 48.4864 6.03147C58.8093 6.03147 67.6911 10.2763 72.8378 17.668C77.4552 24.246 78.6708 32.667 76.318 41.343Z" fill="#FFDA6B"/>
<path d="M35.0463 72.4389C43.7761 72.3032 52.2623 69.5393 59.3977 64.508C67.5779 59.0073 73.5665 50.8086 76.3182 41.3428C78.671 32.6669 77.4358 24.2557 72.838 17.6678C70.5458 14.4041 67.5251 11.7189 64.0151 9.8252C65.2221 10.9959 66.3182 12.2758 67.2894 13.6485C77.2985 27.9907 71.5832 49.2345 54.447 61.0867C41.1734 70.2625 25.0371 71.1252 13.7535 64.4002C18.9787 69.5371 26.4782 72.4389 35.0463 72.4389Z" fill="#EB9500"/>
<path d="M48.0453 6.03161L53.7116 0.345703C57.5678 0.810278 61.3282 1.87192 64.858 3.49256L60.2505 8.09031C56.3479 6.64196 52.207 5.9435 48.0453 6.03161ZM5.00885 63.2045L9.40072 58.7832C7.50975 55.4231 6.38182 51.6878 6.09701 47.8427L0.803223 53.1169C1.62021 56.7008 3.05673 60.1147 5.04805 63.2045H5.00885ZM23.0763 70.3217C19.813 69.0919 16.8174 67.2445 14.2534 64.8808L9.96931 69.1453C12.482 71.5157 15.3581 73.4684 18.4884 74.9292L23.0763 70.3217ZM77.8278 14.2566C76.0909 11.7675 74.0004 9.54487 71.6223 7.65897L67.2696 11.9332C70.0009 13.9781 72.2888 16.5562 73.9947 19.5112L78.3571 15.1389C78.2003 14.8154 78.014 14.5213 77.8278 14.2272V14.2566Z" fill="#FFE69C"/>
<path d="M52.5352 25.001L49.0158 23.4814L27.4584 49.019L28.7622 52.6267L45.2024 55.0579L57.78 40.1373L52.5352 25.001Z" fill="#EB9500"/>
<path d="M49.0257 23.4229L54.1038 38.6376L43.3202 51.4897L27.4094 49.1369L49.0257 23.4229Z" fill="#FFCD39"/>
<path d="M49.0258 23.4226L27.3801 49.1366L22.302 33.9317L33.0856 21.0796L49.0258 23.4226Z" fill="#FFE69C"/>
<defs>
<linearGradient id="paint0_linear" x1="5.72456" y1="46.3131" x2="91.1701" y2="46.3131" gradientUnits="userSpaceOnUse">
<stop stop-color="#D17000"/>
<stop offset="0.18" stop-color="#E08300"/>
<stop offset="0.39" stop-color="#EB9500"/>
<stop offset="0.75" stop-color="#FAAB00"/>
<stop offset="0.9" stop-color="#FFCD39"/>
<stop offset="1" stop-color="#FFC108"/>
</linearGradient>
</defs>
</svg>
